<svg xmlns="http://www.w3.org/2000/svg" xmlns:xlink="http://www.w3.org/1999/xlink" width="20" height="20" viewBox="0 0 20 20" fill="none"><g opacity="1"  transform="translate(0 0)  rotate(0)"><mask id="bg-mask-0" fill="white"><use transform="translate(0 0)  rotate(0)" xlink:href="#path_0"></use></mask><g mask="url(#bg-mask-0)" ><path id="路径 1" fill-rule="evenodd" style="fill:#FF6B6B" opacity="1" d="M1.25,10c0,-4.83 3.92,-8.75 8.75,-8.75c4.83,0 8.75,3.92 8.75,8.75c0,4.83 -3.92,8.75 -8.75,8.75c-4.83,0 -8.75,-3.92 -8.75,-8.75zM7.83,7.21c-0.08,-0.08 -0.19,-0.12 -0.31,-0.12c-0.11,0 -0.22,0.04 -0.3,0.13c-0.09,0.08 -0.13,0.19 -0.13,0.3c0,0.12 0.04,0.23 0.12,0.31l2.17,2.17l-2.17,2.17c-0.08,0.08 -0.12,0.19 -0.12,0.31c0,0.11 0.04,0.22 0.13,0.3c0.08,0.09 0.19,0.13 0.3,0.13c0.12,0 0.23,-0.04 0.31,-0.12l2.17,-2.17l2.17,2.17c0.08,0.08 0.19,0.12 0.31,0.12c0.11,0 0.22,-0.04 0.3,-0.13c0.09,-0.08 0.13,-0.19 0.13,-0.3c0,-0.12 -0.04,-0.23 -0.12,-0.31l-2.17,-2.17l2.17,-2.17c0.08,-0.08 0.12,-0.19 0.12,-0.31c0,-0.11 -0.04,-0.22 -0.13,-0.3c-0.08,-0.09 -0.19,-0.13 -0.3,-0.13c-0.12,0 -0.23,0.04 -0.31,0.12l-2.17,2.17z"></path><path  id="路径 1" style="fill:#FFFFFF; opacity:1;" d="M10,18.25c4.5563,0 8.25,-3.6937 8.25,-8.25c0,-4.55635 -3.6937,-8.25 -8.25,-8.25c-4.55635,0 -8.25,3.69365 -8.25,8.25c0,4.5563 3.69365,8.25 8.25,8.25zM10,19.25c-5.10863,0 -9.25,-4.1414 -9.25,-9.25c0,-5.10863 4.14137,-9.25 9.25,-9.25c5.1086,0 9.25,4.14137 9.25,9.25c0,5.1086 -4.1414,9.25 -9.25,9.25zM7.47645,7.56355M10,10.0871l2.5236,-2.52355c-0.01767,0.01763 -0.0322,0.02645 -0.0436,0.02645c-0.02673,0 -0.0513,-0.01261 -0.0737,-0.03782l0.0195,0.02198l-0.0195,-0.02198l0.0195,0.02198l0.022,0.01954c-0.0252,-0.02241 -0.0378,-0.04697 -0.0378,-0.0737c0,-0.01141 0.0088,-0.02592 0.0264,-0.04355l-2.52351,2.52355l2.52351,2.5236c-0.0176,-0.01767 -0.0264,-0.0322 -0.0264,-0.0436c0,-0.02673 0.0126,-0.0513 0.0378,-0.0737l-0.022,0.0195l0.022,-0.0195l-0.022,0.0195l-0.0195,0.022c0.0224,-0.0252 0.04697,-0.0378 0.0737,-0.0378c0.0114,0 0.02593,0.0088 0.0436,0.0264l-2.5236,-2.52351l-2.52355,2.52351c0.01763,-0.0176 0.03214,-0.0264 0.04355,-0.0264c0.02673,0 0.05129,0.0126 0.0737,0.0378l-0.01954,-0.022l0.01954,0.022l-0.01954,-0.022l-0.02198,-0.0195c0.02521,0.0224 0.03782,0.04697 0.03782,0.0737c0,0.0114 -0.00882,0.02593 -0.02645,0.0436l2.52355,-2.5236l-2.52355,-2.52355c0.01763,0.01763 0.02645,0.03214 0.02645,0.04355c0,0.02673 -0.01261,0.05129 -0.03782,0.0737l0.02198,-0.01954l-0.02198,0.01954l0.02198,-0.01954l0.01954,-0.02198c-0.02241,0.02521 -0.04697,0.03782 -0.0737,0.03782c-0.01141,0 -0.02592,-0.00882 -0.04355,-0.02645zM8.18355,6.85645l2.17005,2.17l-0.3536,0.35355l-0.35355,-0.35355l2.16995,-2.17c0.17767,-0.17763 0.39887,-0.26645 0.6636,-0.26645c0.27267,0 0.49723,0.09927 0.6737,0.29782l-0.3737,0.33218l0.3737,-0.33218l-0.3737,0.33218l0.3322,-0.3737c0.19853,0.17648 0.2978,0.40105 0.2978,0.6737c0,0.26474 -0.0888,0.48592 -0.2664,0.66355l-2.17,2.17005l-0.3536,-0.3536l0.3536,-0.35355l2.17,2.16995c0.1776,0.17767 0.2664,0.39887 0.2664,0.6636c0,0.27267 -0.09927,0.49723 -0.2978,0.6737l-0.3322,-0.3737l0.3322,0.3737l-0.3322,-0.3737l0.3737,0.3322c-0.17647,0.19853 -0.40103,0.2978 -0.6737,0.2978c-0.26473,0 -0.48593,-0.0888 -0.6636,-0.2664l-2.16995,-2.17l0.35355,-0.3536l0.3536,0.3536l-2.17005,2.17c-0.17763,0.1776 -0.39881,0.2664 -0.66355,0.2664c-0.27265,0 -0.49722,-0.09927 -0.6737,-0.2978l0.3737,-0.3322l-0.3737,0.3322l0.3737,-0.3322l-0.33218,0.3737c-0.19855,-0.17647 -0.29782,-0.40103 -0.29782,-0.6737c0,-0.26473 0.08882,-0.48593 0.26645,-0.6636l2.17,-2.16995l0.35355,0.35355l-0.35355,0.3536l-2.17,-2.17005c-0.17763,-0.17763 -0.26645,-0.39881 -0.26645,-0.66355c0,-0.27265 0.09927,-0.49722 0.29782,-0.6737l0.33218,0.3737l-0.33218,-0.3737l0.33218,0.3737l-0.3737,-0.33218c0.17648,-0.19855 0.40105,-0.29782 0.6737,-0.29782c0.26474,0 0.48592,0.08882 0.66355,0.26645z"></path></g></g><defs><rect id="path_0" x="0" y="0" width="20" height="20" /></defs></svg>