<svg xmlns="http://www.w3.org/2000/svg" xmlns:xlink="http://www.w3.org/1999/xlink" width="30" height="30" viewBox="0 0 30 30" fill="none"><g opacity="1"  transform="translate(0 0)  rotate(0)"><mask id="bg-mask-0" fill="white"><use transform="translate(0 0)  rotate(0)" xlink:href="#path_0"></use></mask><g mask="url(#bg-mask-0)" ><path id="路径 1" fill-rule="evenodd" style="fill:#37FF00" opacity="1" d="M14.995 2.5C9.825 2.5 5.625 6.98 5.625 12.5C5.625 18.02 9.825 22.5 14.995 22.5C20.175 22.5 24.375 18.02 24.375 12.5C24.375 6.98 20.175 2.5 14.995 2.5Z"></path><path  id="路径 1" style="fill:#FFFFFF; opacity:1;" d="M14.995,3.16667c-1.5321,0 -2.8924,0.39416 -4.155,1.13231c-2.75812,1.61245 -4.54833,4.60221 -4.54833,8.20102c0,3.5988 1.79021,6.5886 4.54833,8.201c1.2626,0.7382 2.6229,1.1323 4.155,1.1323c1.5567,0 2.9372,-0.4053 4.2137,-1.1628c2.7324,-1.6215 4.4996,-4.5947 4.4996,-8.1705c0,-3.57578 -1.7672,-6.549 -4.4996,-8.17046c-1.2765,-0.7575 -2.657,-1.16287 -4.2137,-1.16287zM14.995,1.83333c1.7484,0 3.4736,0.50658 4.8942,1.34958c3.0245,1.79481 5.1525,5.37496 5.1525,9.31709c0,3.9421 -2.128,7.5223 -5.1526,9.3171c-1.4205,0.843 -3.1457,1.3496 -4.8941,1.3496c-1.7214,0 -3.4225,-0.4929 -4.8279,-1.3146c-3.05344,-1.7851 -5.20877,-5.3846 -5.20877,-9.3521c0,-3.96747 2.15533,-7.567 5.20877,-9.35208c1.4054,-0.82168 3.1065,-1.31459 4.8279,-1.31459z"></path><path  id="路径 2" style="fill:#FFFFFF; opacity:1;" d="M15.6554,8.75v13.75c0,0.0438 -0.0042,0.08717 -0.0126,0.1301c-0.0084,0.04293 -0.02083,0.0846 -0.0373,0.125c-0.01647,0.04047 -0.03667,0.0789 -0.0606,0.1153c-0.02387,0.0364 -0.05103,0.07007 -0.0815,0.101c-0.0304,0.03093 -0.0635,0.05857 -0.0993,0.0829c-0.0358,0.02433 -0.07357,0.04487 -0.1133,0.0616c-0.03973,0.01673 -0.0807,0.0294 -0.1229,0.038c-0.04227,0.00853 -0.0849,0.0128 -0.1279,0.0128c-0.043,0 -0.08563,-0.00427 -0.1279,-0.0128c-0.0422,-0.0086 -0.08317,-0.02127 -0.1229,-0.038c-0.03973,-0.01673 -0.0775,-0.03727 -0.1133,-0.0616c-0.0358,-0.02433 -0.0689,-0.05197 -0.0993,-0.0829c-0.03047,-0.03093 -0.05763,-0.0646 -0.0815,-0.101c-0.02393,-0.0364 -0.04413,-0.07483 -0.0606,-0.1153c-0.01647,-0.0404 -0.0289,-0.08207 -0.0373,-0.125c-0.0084,-0.04293 -0.0126,-0.0863 -0.0126,-0.1301v-13.75c0,-0.04377 0.0042,-0.08713 0.0126,-0.13006c0.0084,-0.04293 0.02083,-0.08462 0.0373,-0.12506c0.01647,-0.04045 0.03667,-0.07887 0.0606,-0.11526c0.02387,-0.0364 0.05103,-0.07008 0.0815,-0.10103c0.0304,-0.03095 0.0635,-0.05858 0.0993,-0.0829c0.0358,-0.02432 0.07357,-0.04486 0.1133,-0.06161c0.03973,-0.01675 0.0807,-0.0294 0.1229,-0.03794c0.04227,-0.00854 0.0849,-0.01281 0.1279,-0.01281c0.043,0 0.08563,0.00427 0.1279,0.01281c0.0422,0.00854 0.08317,0.02119 0.1229,0.03794c0.03973,0.01675 0.0775,0.03729 0.1133,0.06161c0.0358,0.02432 0.0689,0.05195 0.0993,0.0829c0.0304,0.03095 0.05757,0.06463 0.0815,0.10103c0.02393,0.03639 0.04413,0.07481 0.0606,0.11526c0.01647,0.04044 0.0289,0.08213 0.0373,0.12506c0.0084,0.04293 0.0126,0.08629 0.0126,0.13006z"></path><path  id="路径 3" style="fill:#37FF00; opacity:1;" d="M19.0316,22.2722c-1.2105,0.5642 -2.6216,0.8944 -4.0316,0.8944c-1.41,0 -2.8211,-0.3302 -4.0316,-0.8944l0.5632,-1.2085c1.0855,0.5059 2.2124,0.7696 3.4684,0.7696c1.256,0 2.3829,-0.2637 3.4684,-0.7696z"></path><path  id="路径 4" style="fill:#37FF00; opacity:1;" d="M15.6554,22.5v5c0,0.0438 -0.0042,0.08717 -0.0126,0.1301c-0.0084,0.04293 -0.02083,0.0846 -0.0373,0.125c-0.01647,0.04047 -0.03667,0.0789 -0.0606,0.1153c-0.02387,0.0364 -0.05103,0.07007 -0.0815,0.101c-0.0304,0.03093 -0.0635,0.05857 -0.0993,0.0829c-0.0358,0.02433 -0.07357,0.04487 -0.1133,0.0616c-0.03973,0.01673 -0.0807,0.0294 -0.1229,0.038c-0.04227,0.00853 -0.0849,0.0128 -0.1279,0.0128c-0.043,0 -0.08563,-0.00427 -0.1279,-0.0128c-0.0422,-0.0086 -0.08317,-0.02127 -0.1229,-0.038c-0.03973,-0.01673 -0.0775,-0.03727 -0.1133,-0.0616c-0.0358,-0.02433 -0.0689,-0.05197 -0.0993,-0.0829c-0.03047,-0.03093 -0.05763,-0.0646 -0.0815,-0.101c-0.02393,-0.0364 -0.04413,-0.07483 -0.0606,-0.1153c-0.01647,-0.0404 -0.0289,-0.08207 -0.0373,-0.125c-0.0084,-0.04293 -0.0126,-0.0863 -0.0126,-0.1301v-5c0,-0.0438 0.0042,-0.08717 0.0126,-0.1301c0.0084,-0.04293 0.02083,-0.0846 0.0373,-0.125c0.01647,-0.04047 0.03667,-0.0789 0.0606,-0.1153c0.02387,-0.0364 0.05103,-0.07007 0.0815,-0.101c0.0304,-0.03093 0.0635,-0.05857 0.0993,-0.0829c0.0358,-0.02433 0.07357,-0.04487 0.1133,-0.0616c0.03973,-0.01673 0.0807,-0.0294 0.1229,-0.038c0.04227,-0.00853 0.0849,-0.0128 0.1279,-0.0128c0.043,0 0.08563,0.00427 0.1279,0.0128c0.0422,0.0086 0.08317,0.02127 0.1229,0.038c0.03973,0.01673 0.0775,0.03727 0.1133,0.0616c0.0358,0.02433 0.0689,0.05197 0.0993,0.0829c0.0304,0.03093 0.05757,0.0646 0.0815,0.101c0.02393,0.0364 0.04413,0.07483 0.0606,0.1153c0.01647,0.0404 0.0289,0.08207 0.0373,0.125c0.0084,0.04293 0.0126,0.0863 0.0126,0.1301z"></path><path  id="路径 5" style="fill:#FFFFFF; opacity:1;" d="M14.5286,13.2786l3.75,-3.75c0.03093,-0.03095 0.0646,-0.05859 0.101,-0.08291c0.0364,-0.02432 0.07483,-0.04486 0.1153,-0.06161c0.0404,-0.01675 0.08207,-0.0294 0.125,-0.03794c0.04293,-0.00854 0.0863,-0.01281 0.1301,-0.01281c0.0438,0 0.08717,0.00427 0.1301,0.01281c0.04293,0.00854 0.0846,0.02119 0.125,0.03794c0.04047,0.01675 0.0789,0.03729 0.1153,0.06161c0.0364,0.02432 0.07007,0.05196 0.101,0.08291c0.03093,0.03095 0.05857,0.06462 0.0829,0.10102c0.02433,0.03639 0.04487,0.07481 0.0616,0.11526c0.01673,0.04044 0.0294,0.08213 0.038,0.12506c0.00853,0.04293 0.0128,0.08629 0.0128,0.13006c0,0.0438 -0.00427,0.08717 -0.0128,0.1301c-0.0086,0.04293 -0.02127,0.0846 -0.038,0.125c-0.01673,0.04047 -0.03727,0.0789 -0.0616,0.1153c-0.02433,0.0364 -0.05197,0.07007 -0.0829,0.101l-3.75,3.75c-0.03093,0.03093 -0.0646,0.05857 -0.101,0.0829c-0.0364,0.02433 -0.07483,0.04487 -0.1153,0.0616c-0.0404,0.01673 -0.08207,0.0294 -0.125,0.038c-0.04293,0.00853 -0.0863,0.0128 -0.1301,0.0128c-0.0438,0 -0.08717,-0.00427 -0.1301,-0.0128c-0.04293,-0.0086 -0.0846,-0.02127 -0.125,-0.038c-0.04047,-0.01673 -0.0789,-0.03727 -0.1153,-0.0616c-0.0364,-0.02433 -0.07007,-0.05197 -0.101,-0.0829c-0.03093,-0.03093 -0.05857,-0.0646 -0.0829,-0.101c-0.02433,-0.0364 -0.04487,-0.07483 -0.0616,-0.1153c-0.01673,-0.0404 -0.0294,-0.08207 -0.038,-0.125c-0.00853,-0.04293 -0.0128,-0.0863 -0.0128,-0.1301c0,-0.0438 0.00427,-0.08717 0.0128,-0.1301c0.0086,-0.04293 0.02127,-0.0846 0.038,-0.125c0.01673,-0.04047 0.03727,-0.0789 0.0616,-0.1153c0.02433,-0.0364 0.05197,-0.07007 0.0829,-0.101z"></path><path  id="路径 6" style="fill:#FFFFFF; opacity:1;" d="M14.5286,18.5964l-3.75,-3.75c-0.03093,-0.03093 -0.05857,-0.0646 -0.0829,-0.101c-0.02433,-0.0364 -0.04487,-0.07483 -0.0616,-0.1153c-0.01673,-0.0404 -0.0294,-0.08207 -0.038,-0.125c-0.00853,-0.04293 -0.0128,-0.0863 -0.0128,-0.1301c0,-0.0438 0.00427,-0.08717 0.0128,-0.1301c0.0086,-0.04293 0.02127,-0.0846 0.038,-0.125c0.01673,-0.04047 0.03727,-0.0789 0.0616,-0.1153c0.02433,-0.0364 0.05197,-0.07007 0.0829,-0.101c0.03093,-0.03093 0.0646,-0.05857 0.101,-0.0829c0.0364,-0.02433 0.07483,-0.04487 0.1153,-0.0616c0.0404,-0.01673 0.08207,-0.0294 0.125,-0.038c0.04293,-0.00853 0.0863,-0.0128 0.1301,-0.0128c0.0438,0 0.08717,0.00427 0.1301,0.0128c0.04293,0.0086 0.0846,0.02127 0.125,0.038c0.04047,0.01673 0.0789,0.03727 0.1153,0.0616c0.0364,0.02433 0.07007,0.05197 0.101,0.0829l3.75,3.75c0.03093,0.03093 0.05857,0.0646 0.0829,0.101c0.02433,0.0364 0.04487,0.07483 0.0616,0.1153c0.01673,0.0404 0.0294,0.08207 0.038,0.125c0.00853,0.04293 0.0128,0.0863 0.0128,0.1301c0,0.0438 -0.00427,0.08717 -0.0128,0.1301c-0.0086,0.04293 -0.02127,0.0846 -0.038,0.125c-0.01673,0.04047 -0.03727,0.0789 -0.0616,0.1153c-0.02433,0.0364 -0.05197,0.07007 -0.0829,0.101c-0.03093,0.03093 -0.0646,0.05857 -0.101,0.0829c-0.0364,0.02433 -0.07483,0.04487 -0.1153,0.0616c-0.0404,0.01673 -0.08207,0.0294 -0.125,0.038c-0.04293,0.00853 -0.0863,0.0128 -0.1301,0.0128c-0.0438,0 -0.08717,-0.00427 -0.1301,-0.0128c-0.04293,-0.0086 -0.0846,-0.02127 -0.125,-0.038c-0.04047,-0.01673 -0.0789,-0.03727 -0.1153,-0.0616c-0.0364,-0.02433 -0.07007,-0.05197 -0.101,-0.0829z"></path></g></g><defs><rect id="path_0" x="0" y="0" width="30" height="30" /></defs></svg>