<svg xmlns="http://www.w3.org/2000/svg" xmlns:xlink="http://www.w3.org/1999/xlink" width="62" height="62" viewBox="0 0 62 62" fill="none"><g opacity="1"  transform="translate(0 0)  rotate(0)"><mask id="bg-mask-0" fill="white"><use transform="translate(0 0)  rotate(0)" xlink:href="#path_0"></use></mask><g mask="url(#bg-mask-0)" ><path id="路径 1" fill-rule="evenodd" style="fill:#5F5F5F" opacity="1" d="M0,62v-3.65h4.65v-51.06c0,-4.02 2.78,-7.29 6.2,-7.29h21.7c3.42,0 6.2,3.27 6.2,7.29v14.59h12.4c3.42,0 6.2,3.27 6.2,7.3v29.17h4.65v3.65zM32.55,3.65h-21.7c-1.71,0 -3.1,1.63 -3.1,3.64v51.06h27.9v-51.06c0,-2.01 -1.39,-3.64 -3.1,-3.64zM51.15,25.53h-12.4v32.82h15.5v-29.17c0,-2.02 -1.39,-3.65 -3.1,-3.65zM51.15,38.29h-9.3v-3.64h9.3zM51.15,49.24h-9.3v-3.65h9.3zM20.15,20.06h-9.3v-3.65h9.3zM20.15,31h-9.3v-3.65h9.3zM20.15,41.94h-9.3v-3.65h9.3zM32.55,20.06h-9.3v-3.65h9.3zM32.55,31h-9.3v-3.65h9.3zM32.55,41.94h-9.3v-3.65h9.3z"></path></g></g><defs><rect id="path_0" x="0" y="0" width="62" height="62" /></defs></svg>