<svg xmlns="http://www.w3.org/2000/svg" xmlns:xlink="http://www.w3.org/1999/xlink" width="62" height="62" viewBox="0 0 62 62" fill="none"><g opacity="1"  transform="translate(0 0)  rotate(0)"><mask id="bg-mask-0" fill="white"><use transform="translate(0 0)  rotate(0)" xlink:href="#path_0"></use></mask><g mask="url(#bg-mask-0)" ><path  id="路径 1" style="fill:#5F5F5F; opacity:1;" d="M18.08,34.6667M18.08,34.6667c3.03573,0 6.35413,0.5322 9.9552,1.5966c5.12987,1.5162 7.6948,3.63733 7.6948,6.3634c0,3.40187 -3.0027,5.1603 -9.0081,5.2753c-0.98673,0.01887 -1.66093,0.04763 -2.0226,0.0863c-0.0529,0.0056 -0.1061,0.0084 -0.1593,0.0084c0.1064,-0.0028 0.0532,0 0,0c-5.02667,0 -7.54,0.79337 -7.54,2.3801c0,1.33127 4.20233,2.5573 12.607,3.6781c6.40813,0.85453 12.2558,1.28183 17.543,1.2819c0.04913,0 0.09813,0.0024 0.147,0.0072c0.04893,0.0048 0.09747,0.012 0.1456,0.0216c0.0482,0.00953 0.0958,0.02143 0.1428,0.0357c0.047,0.01427 0.0932,0.0308 0.1386,0.0496c0.0454,0.0188 0.08977,0.0398 0.1331,0.063c0.04333,0.02313 0.0854,0.04833 0.1262,0.0756c0.04087,0.02733 0.0803,0.05657 0.1183,0.0877c0.03793,0.0312 0.0743,0.06417 0.1091,0.0989c0.03473,0.03473 0.06767,0.0711 0.0988,0.1091c0.0312,0.03793 0.06043,0.07733 0.0877,0.1182c0.02727,0.04087 0.0525,0.08297 0.0757,0.1263c0.02313,0.04327 0.0441,0.0876 0.0629,0.133c0.0188,0.0454 0.03533,0.0916 0.0496,0.1386c0.01427,0.047 0.0262,0.0946 0.0358,0.1428c0.0096,0.0482 0.0168,0.09673 0.0216,0.1456c0.0048,0.04893 0.0072,0.09797 0.0072,0.1471c0,0.04907 -0.0024,0.09807 -0.0072,0.147c-0.0048,0.04887 -0.012,0.0974 -0.0216,0.1456c-0.0096,0.0482 -0.02153,0.0958 -0.0358,0.1428c-0.01427,0.047 -0.0308,0.0932 -0.0496,0.1386c-0.0188,0.0454 -0.03977,0.08973 -0.0629,0.133c-0.0232,0.04333 -0.04843,0.08543 -0.0757,0.1263c-0.02727,0.04087 -0.0565,0.08027 -0.0877,0.1182c-0.03113,0.038 -0.06407,0.07437 -0.0988,0.1091c-0.0348,0.03473 -0.07117,0.0677 -0.1091,0.0989c-0.038,0.03113 -0.07743,0.06037 -0.1183,0.0877c-0.0408,0.02727 -0.08287,0.05247 -0.1262,0.0756c-0.04333,0.0232 -0.0877,0.0442 -0.1331,0.063c-0.0454,0.0188 -0.0916,0.03533 -0.1386,0.0496c-0.047,0.0142 -0.0946,0.0261 -0.1428,0.0357c-0.04813,0.0096 -0.09667,0.0168 -0.1456,0.0216c-0.04887,0.00487 -0.09787,0.0073 -0.147,0.0073c-5.42,-0.00007 -11.39983,-0.43613 -17.9395,-1.3082c-10.14033,-1.35227 -15.2105,-3.56953 -15.2105,-6.6518c0,-3.58673 3.51333,-5.3801 10.54,-5.3801v1.5v-1.5v1.5l-0.1593,-1.4915c0.44853,-0.04787 1.2098,-0.0821 2.2838,-0.1027c4.04367,-0.0774 6.0655,-0.83597 6.0655,-2.2757c0,-1.23173 -1.8484,-2.39393 -5.5452,-3.4866c-3.32353,-0.98233 -6.35847,-1.4735 -9.1048,-1.4735c-0.04913,0 -0.09813,-0.0024 -0.147,-0.0072c-0.04893,-0.0048 -0.09747,-0.012 -0.1456,-0.0216c-0.0482,-0.00953 -0.0958,-0.02143 -0.1428,-0.0357c-0.047,-0.01427 -0.0932,-0.0308 -0.1386,-0.0496c-0.0454,-0.0188 -0.08977,-0.0398 -0.1331,-0.063c-0.04333,-0.02313 -0.08543,-0.04837 -0.1263,-0.0757c-0.0408,-0.02727 -0.0802,-0.05647 -0.1182,-0.0876c-0.038,-0.0312 -0.07437,-0.06417 -0.1091,-0.0989c-0.03473,-0.03473 -0.06767,-0.0711 -0.0988,-0.1091c-0.0312,-0.03793 -0.06043,-0.07733 -0.0877,-0.1182c-0.02727,-0.04087 -0.0525,-0.08297 -0.0757,-0.1263c-0.02313,-0.04333 -0.0441,-0.08767 -0.0629,-0.133c-0.0188,-0.0454 -0.03533,-0.0916 -0.0496,-0.1386c-0.01427,-0.047 -0.0262,-0.0946 -0.0358,-0.1428c-0.0096,-0.0482 -0.0168,-0.09673 -0.0216,-0.1456c-0.0048,-0.04893 -0.0072,-0.09797 -0.0072,-0.1471c0,-0.04907 0.0024,-0.09807 0.0072,-0.147c0.0048,-0.04887 0.012,-0.0974 0.0216,-0.1456c0.0096,-0.0482 0.02153,-0.0958 0.0358,-0.1428c0.01427,-0.047 0.0308,-0.0932 0.0496,-0.1386c0.0188,-0.0454 0.03977,-0.08973 0.0629,-0.133c0.0232,-0.04333 0.04843,-0.08543 0.0757,-0.1263c0.02727,-0.04087 0.0565,-0.08027 0.0877,-0.1182c0.03113,-0.038 0.06407,-0.07437 0.0988,-0.1091c0.03473,-0.03473 0.0711,-0.0677 0.1091,-0.0989c0.038,-0.03113 0.0774,-0.06037 0.1182,-0.0877c0.04087,-0.02727 0.08297,-0.05247 0.1263,-0.0756c0.04333,-0.0232 0.0877,-0.0442 0.1331,-0.063c0.0454,-0.0188 0.0916,-0.03533 0.1386,-0.0496c0.047,-0.01427 0.0946,-0.02617 0.1428,-0.0357c0.04813,-0.0096 0.09667,-0.0168 0.1456,-0.0216c0.04887,-0.00487 0.09787,-0.0073 0.147,-0.0073z"></path><path  id="路径 2" style="fill:#5F5F5F; opacity:1;" d="M38.5415,19.3767M38.5415,19.3767c0,-2.72107 -1.12617,-5.46207 -3.3785,-8.223c-2.44033,-2.9913 -5.20417,-4.48695 -8.2915,-4.48695c-3.0568,0 -5.9561,1.91482 -8.6979,5.74445c-2.545,3.55487 -4.4361,7.91643 -5.6733,13.0847c-1.50887,6.29673 -2.15533,13.28297 -1.9394,20.9587v-0.0001c0.0014,0.04913 0.00037,0.0982 -0.0031,0.1472c-0.0034,0.049 -0.00923,0.0977 -0.0175,0.1461c-0.0082,0.04847 -0.01877,0.0964 -0.0317,0.1438c-0.01293,0.0474 -0.02817,0.09403 -0.0457,0.1399c-0.01747,0.04593 -0.03717,0.09087 -0.0591,0.1348c-0.02193,0.04393 -0.04597,0.0867 -0.0721,0.1283c-0.02613,0.0416 -0.05423,0.08183 -0.0843,0.1207c-0.03013,0.03887 -0.06207,0.07613 -0.0958,0.1118c-0.03373,0.03573 -0.06913,0.0697 -0.1062,0.1019c-0.0371,0.0322 -0.07568,0.06253 -0.11574,0.091c-0.04006,0.0284 -0.08142,0.0548 -0.12408,0.0792c-0.04265,0.02433 -0.0864,0.04653 -0.13124,0.0666c-0.04484,0.02013 -0.09056,0.03797 -0.13715,0.0535c-0.04659,0.0156 -0.09383,0.02887 -0.14172,0.0398c-0.04789,0.01093 -0.09621,0.0195 -0.14495,0.0257c-0.04873,0.0062 -0.09765,0.01 -0.14676,0.0114c-0.04911,0.00133 -0.09816,0.0003 -0.14717,-0.0031c-0.04901,-0.00347 -0.09773,-0.0093 -0.14616,-0.0175c-0.04843,-0.00827 -0.09635,-0.01883 -0.14374,-0.0317c-0.0474,-0.01293 -0.09405,-0.02817 -0.13995,-0.0457c-0.04589,-0.01753 -0.09082,-0.03727 -0.13479,-0.0592c-0.04396,-0.02193 -0.08674,-0.04597 -0.12834,-0.0721c-0.0416,-0.02613 -0.08182,-0.05423 -0.12066,-0.0843c-0.03883,-0.03007 -0.0761,-0.06197 -0.11181,-0.0957c-0.0357,-0.0338 -0.06966,-0.06923 -0.10188,-0.1063c-0.03223,-0.03707 -0.06256,-0.07563 -0.09099,-0.1157c-0.02843,-0.04007 -0.05483,-0.08143 -0.0792,-0.1241c-0.02437,-0.04267 -0.0466,-0.0864 -0.06667,-0.1312c-0.02007,-0.04487 -0.03789,-0.0906 -0.05347,-0.1372c-0.01558,-0.0466 -0.02884,-0.09383 -0.03978,-0.1417c-0.01093,-0.04787 -0.0195,-0.09617 -0.02569,-0.1449c-0.00619,-0.04873 -0.00997,-0.09767 -0.01136,-0.1468v-0.0001c-0.22338,-7.94047 0.45016,-15.1876 2.02062,-21.7414c1.32825,-5.5488 3.37881,-10.2597 6.15168,-14.1327c3.34007,-4.66537 7.05243,-6.99805 11.1371,-6.99805c4.03687,0 7.57553,1.86352 10.616,5.59055c2.70267,3.31287 4.054,6.686 4.054,10.1194c0,0.04913 -0.0024,0.09817 -0.0072,0.1471c-0.0048,0.04887 -0.012,0.0974 -0.0216,0.1456c-0.0096,0.0482 -0.02153,0.0958 -0.0358,0.1428c-0.01427,0.047 -0.0308,0.0932 -0.0496,0.1386c-0.0188,0.0454 -0.03977,0.08973 -0.0629,0.133c-0.0232,0.04333 -0.04843,0.08543 -0.0757,0.1263c-0.02727,0.04087 -0.0565,0.08027 -0.0877,0.1182c-0.03113,0.038 -0.06407,0.07437 -0.0988,0.1091c-0.03473,0.03473 -0.0711,0.0677 -0.1091,0.0989c-0.038,0.03113 -0.0774,0.06033 -0.1182,0.0876c-0.04087,0.02733 -0.08297,0.05257 -0.1263,0.0757c-0.04333,0.0232 -0.0877,0.0442 -0.1331,0.063c-0.0454,0.0188 -0.0916,0.03533 -0.1386,0.0496c-0.047,0.0142 -0.0946,0.0261 -0.1428,0.0357c-0.04813,0.0096 -0.09667,0.0168 -0.1456,0.0216c-0.04887,0.0048 -0.09787,0.0072 -0.147,0.0072c-0.04913,0 -0.09813,-0.0024 -0.147,-0.0072c-0.04893,-0.0048 -0.09747,-0.012 -0.1456,-0.0216c-0.0482,-0.0096 -0.0958,-0.0215 -0.1428,-0.0357c-0.047,-0.01427 -0.0932,-0.0308 -0.1386,-0.0496c-0.0454,-0.0188 -0.08977,-0.0398 -0.1331,-0.063c-0.04333,-0.02313 -0.08543,-0.04837 -0.1263,-0.0757c-0.0408,-0.02727 -0.0802,-0.05647 -0.1182,-0.0876c-0.03793,-0.0312 -0.0743,-0.06417 -0.1091,-0.0989c-0.03473,-0.03473 -0.06767,-0.0711 -0.0988,-0.1091c-0.0312,-0.03793 -0.06043,-0.07733 -0.0877,-0.1182c-0.02727,-0.04087 -0.0525,-0.08297 -0.0757,-0.1263c-0.02313,-0.04327 -0.0441,-0.0876 -0.0629,-0.133c-0.0188,-0.0454 -0.03533,-0.0916 -0.0496,-0.1386c-0.01427,-0.047 -0.0262,-0.0946 -0.0358,-0.1428c-0.00953,-0.0482 -0.01673,-0.09673 -0.0216,-0.1456c-0.0048,-0.04893 -0.0072,-0.09797 -0.0072,-0.1471z"></path><path  id="路径 3" style="fill:#5F5F5F; opacity:1;" d="M32.0835,30.9983M32.0835,30.9983c0,-2.4088 0.62877,-4.5899 1.8863,-6.5433c1.71533,-2.66447 4.1699,-3.9967 7.3637,-3.9967c5.33393,0 8.8345,3.6177 10.5017,10.8531c0.70753,3.0638 1.1499,6.81617 1.3271,11.2571v0c0.00193,0.04907 0.00147,0.09813 -0.0014,0.1472c-0.00287,0.049 -0.0081,0.09777 -0.0157,0.1463c-0.00767,0.04853 -0.0177,0.09657 -0.0301,0.1441c-0.0124,0.04753 -0.02707,0.09437 -0.044,0.1405c-0.017,0.04607 -0.0362,0.09123 -0.0576,0.1355c-0.0214,0.0442 -0.04493,0.08723 -0.0706,0.1291c-0.02567,0.04193 -0.0533,0.0825 -0.0829,0.1217c-0.0296,0.0392 -0.06107,0.07683 -0.0944,0.1129c-0.03333,0.03607 -0.06837,0.07043 -0.1051,0.1031c-0.03667,0.03267 -0.07487,0.06347 -0.1146,0.0924c-0.03973,0.02887 -0.0808,0.05573 -0.1232,0.0806c-0.04233,0.02487 -0.0858,0.0476 -0.1304,0.0682c-0.0446,0.0206 -0.0901,0.03897 -0.1365,0.0551c-0.0464,0.01613 -0.0935,0.02993 -0.1413,0.0414c-0.04773,0.01147 -0.09593,0.0206 -0.1446,0.0274c-0.04867,0.00673 -0.09753,0.0111 -0.1466,0.0131c-0.04913,0.00193 -0.0982,0.00147 -0.1472,-0.0014c-0.04907,-0.00287 -0.09787,-0.00813 -0.1464,-0.0158c-0.04853,-0.00767 -0.09657,-0.01767 -0.1441,-0.03c-0.04753,-0.0124 -0.09437,-0.0271 -0.1405,-0.0441c-0.04607,-0.01693 -0.0912,-0.0361 -0.1354,-0.0575c-0.04427,-0.02147 -0.08733,-0.045 -0.1292,-0.0706c-0.04193,-0.02567 -0.08247,-0.0533 -0.1216,-0.0829c-0.0392,-0.02967 -0.07687,-0.06117 -0.113,-0.0945c-0.03607,-0.03333 -0.07043,-0.06833 -0.1031,-0.105c-0.03267,-0.03673 -0.06343,-0.07497 -0.0923,-0.1147c-0.02893,-0.03973 -0.05583,-0.08077 -0.0807,-0.1231c-0.02487,-0.0424 -0.0476,-0.0859 -0.0682,-0.1305c-0.02053,-0.0446 -0.03887,-0.0901 -0.055,-0.1365c-0.01613,-0.0464 -0.02997,-0.09347 -0.0415,-0.1412c-0.01147,-0.0478 -0.02057,-0.09603 -0.0273,-0.1447c-0.0068,-0.0486 -0.01117,-0.09747 -0.0131,-0.1466v0c-0.16973,-4.25333 -0.58737,-7.82097 -1.2529,-10.7029c-1.30987,-5.68453 -3.83597,-8.5268 -7.5783,-8.5268c-2.10273,0 -3.7165,0.87357 -4.8413,2.6207c-0.93913,1.4588 -1.4087,3.09857 -1.4087,4.9193c0,0.04907 -0.0024,0.09807 -0.0072,0.147c-0.0048,0.04887 -0.012,0.0974 -0.0216,0.1456c-0.0096,0.0482 -0.02153,0.0958 -0.0358,0.1428c-0.01427,0.047 -0.0308,0.0932 -0.0496,0.1386c-0.0188,0.0454 -0.03977,0.08973 -0.0629,0.133c-0.0232,0.04333 -0.04843,0.08543 -0.0757,0.1263c-0.02727,0.04087 -0.0565,0.08027 -0.0877,0.1182c-0.03113,0.038 -0.06407,0.07437 -0.0988,0.1091c-0.0348,0.03473 -0.07117,0.0677 -0.1091,0.0989c-0.038,0.03113 -0.0774,0.06037 -0.1182,0.0877c-0.04087,0.02727 -0.08297,0.05247 -0.1263,0.0756c-0.04333,0.0232 -0.0877,0.0442 -0.1331,0.063c-0.0454,0.0188 -0.0916,0.03533 -0.1386,0.0496c-0.047,0.01427 -0.0946,0.02617 -0.1428,0.0357c-0.04813,0.0096 -0.09667,0.0168 -0.1456,0.0216c-0.04887,0.00487 -0.09787,0.0073 -0.147,0.0073c-0.04913,0 -0.09813,-0.00243 -0.147,-0.0073c-0.04893,-0.0048 -0.09747,-0.012 -0.1456,-0.0216c-0.0482,-0.00953 -0.0958,-0.02143 -0.1428,-0.0357c-0.047,-0.01427 -0.0932,-0.0308 -0.1386,-0.0496c-0.0454,-0.0188 -0.08977,-0.0398 -0.1331,-0.063c-0.04333,-0.02313 -0.08543,-0.04833 -0.1263,-0.0756c-0.0408,-0.02733 -0.0802,-0.05657 -0.1182,-0.0877c-0.038,-0.0312 -0.07437,-0.06417 -0.1091,-0.0989c-0.03473,-0.03473 -0.06767,-0.0711 -0.0988,-0.1091c-0.0312,-0.03793 -0.06043,-0.07733 -0.0877,-0.1182c-0.02733,-0.04087 -0.05257,-0.08297 -0.0757,-0.1263c-0.02313,-0.04327 -0.0441,-0.0876 -0.0629,-0.133c-0.0188,-0.0454 -0.03533,-0.0916 -0.0496,-0.1386c-0.01427,-0.047 -0.0262,-0.0946 -0.0358,-0.1428c-0.0096,-0.0482 -0.0168,-0.09673 -0.0216,-0.1456c-0.0048,-0.04893 -0.0072,-0.09793 -0.0072,-0.147z"></path></g></g><defs><rect id="path_0" x="0" y="0" width="62" height="62" /></defs></svg>