<svg xmlns="http://www.w3.org/2000/svg" xmlns:xlink="http://www.w3.org/1999/xlink" width="62" height="62" viewBox="0 0 62 62" fill="none"><g opacity="1"  transform="translate(0 0)  rotate(0)"><mask id="bg-mask-0" fill="white"><use transform="translate(0 0)  rotate(0)" xlink:href="#path_0"></use></mask><g mask="url(#bg-mask-0)" ><path id="路径 1" fill-rule="evenodd" style="fill:#5F5F5F" opacity="1" d="M51.8895,12.7512c0.62,0 1.19,0.37 1.44,0.93h0.14v36.24c-0.01,4.31 -3.54,7.81 -7.9,7.81h-29.68c-4.35,0 -7.87999,-3.5 -7.88999,-7.81v-39.36h0.03c-0.03,-0.21 -0.03,-0.41 -0.03,-0.61998c0,-3.28 2.68999,-5.94 5.99999,-5.94h37.89c0.87,0 1.58,0.7 1.58,1.56c0,0.86 -0.71,1.56 -1.58,1.56h-37.89c-1.57,0 -2.84,1.26 -2.84,2.82c0,1.54998 1.27,2.80998 2.84,2.80998zM35.7895,23.6812l2.35,-2.34c0.62,-0.6 1.62,-0.6 2.24,0l2.35,2.34v-7.81h-6.94zM50.3095,49.9212v-34.05h-4.42v11.56c0,0.63 -0.38,1.2 -0.98,1.45c-0.59,0.24 -1.27,0.1 -1.72,-0.34l-3.93,-3.9l-3.94,3.9c-0.45,0.44 -1.13,0.58 -1.72,0.34c-0.59,-0.25 -0.97,-0.82 -0.97,-1.45v-11.56h-18.63c-0.99,0 -1.97,-0.24 -2.84,-0.71v34.76c0,2.59 2.12,4.69 4.73,4.69h29.68c2.62,0 4.74,-2.1 4.74,-4.69z"></path><path id="路径 2" fill-rule="evenodd" style="fill:#5F5F5F" opacity="1" d="M18.1443,33.9379c-0.84,0 -1.53,-0.69 -1.53,-1.54c0,-0.84 0.69,-1.53 1.53,-1.53h7.98c0.85,0 1.54,0.69 1.54,1.53c0,0.85 -0.69,1.54 -1.54,1.54zM43.3143,37.6179c0.85,0 1.54,0.69 1.54,1.54c0,0.84 -0.69,1.53 -1.54,1.53h-25.17c-0.84,0 -1.53,-0.69 -1.53,-1.53c0,-0.85 0.69,-1.54 1.53,-1.54zM35.3343,44.3679c0.85,0.01 1.54,0.69 1.54,1.54c0,0.85 -0.69,1.53 -1.54,1.53h-17.19c-0.84,0 -1.53,-0.68 -1.53,-1.53c0,-0.85 0.69,-1.53 1.53,-1.54z"></path></g></g><defs><rect id="path_0" x="0" y="0" width="62" height="62" /></defs></svg>