<svg xmlns="http://www.w3.org/2000/svg" xmlns:xlink="http://www.w3.org/1999/xlink" width="62" height="62" viewBox="0 0 62 62" fill="none"><g opacity="1"  transform="translate(0 0)  rotate(0)"><mask id="bg-mask-0" fill="white"><use transform="translate(0 0)  rotate(0)" xlink:href="#path_0"></use></mask><g mask="url(#bg-mask-0)" ><path id="路径 1" fill-rule="evenodd" style="fill:#5F5F5F" opacity="1" d="M6.2001 60.45L6.2001 9.3C6.2001 5.89 8.9901 3.1 12.4001 3.1L34.1001 3.1C37.5101 3.1 40.3001 5.89 40.3001 9.3L40.3001 28.68C40.3001 29.53 41.0001 30.23 41.8501 30.23C42.7001 30.23 43.4001 29.53 43.4001 28.68L43.4001 9.3C43.4001 4.19 39.2101 0 34.1001 0L12.4001 0C7.2801 0 3.1001 4.19 3.1001 9.3L3.1001 60.45C3.1001 61.3 3.8001 62 4.6501 62C5.5001 62 6.2001 61.3 6.2001 60.45Z"></path><path id="路径 2" fill-rule="evenodd" style="fill:#5F5F5F" opacity="1" d="M60.45,62h-58.9c-0.85,0 -1.55,-0.7 -1.55,-1.55c0,-0.85 0.7,-1.55 1.55,-1.55h58.9c0.86,0 1.55,0.7 1.55,1.55c0,0.85 -0.69,1.55 -1.55,1.55zM19.38,13.95h-6.98c-0.85,0 -1.55,-0.7 -1.55,-1.55c0,-0.85 0.7,-1.55 1.55,-1.55h6.98c0.85,0 1.55,0.7 1.55,1.55c0,0.85 -0.7,1.55 -1.55,1.55zM34.1,13.95h-6.97c-0.86,0 -1.55,-0.7 -1.55,-1.55c0,-0.85 0.69,-1.55 1.55,-1.55h6.97c0.86,0 1.55,0.7 1.55,1.55c0,0.85 -0.69,1.55 -1.55,1.55zM19.38,24.8h-6.98c-0.85,0 -1.55,-0.7 -1.55,-1.55c0,-0.85 0.7,-1.55 1.55,-1.55h6.98c0.85,0 1.55,0.7 1.55,1.55c0,0.85 -0.7,1.55 -1.55,1.55zM31,24.8h-3.87c-0.86,0 -1.55,-0.7 -1.55,-1.55c0,-0.85 0.69,-1.55 1.55,-1.55h3.87c0.85,0 1.55,0.7 1.55,1.55c0,0.85 -0.7,1.55 -1.55,1.55zM19.38,35.65h-6.98c-0.85,0 -1.55,-0.7 -1.55,-1.55c0,-0.85 0.7,-1.55 1.55,-1.55h6.98c0.85,0 1.55,0.7 1.55,1.55c0,0.85 -0.7,1.55 -1.55,1.55z"></path><path id="路径 3" fill-rule="evenodd" style="fill:#5F5F5F" opacity="1" d="M19.9127 48.3576L39.6027 28.5976L59.3627 48.3576C59.9827 48.9776 60.9127 48.9776 61.5327 48.3576C62.1527 47.7376 62.1527 46.8076 61.5327 46.1876L40.6827 25.3376C40.3727 25.0276 39.9927 24.8776 39.6027 24.8776C39.2127 24.8776 38.8227 25.0276 38.5127 25.3376L17.7427 46.1876C17.1327 46.8076 17.1327 47.7376 17.7427 48.3576C18.0527 48.6676 18.4427 48.8276 18.8327 48.8276C19.2227 48.8276 19.6027 48.6676 19.9127 48.3576Z"></path><path id="路径 4" fill-rule="evenodd" style="fill:#5F5F5F" opacity="1" d="M55.8776 60.4525L55.8776 41.1525C55.8776 40.3025 55.1776 39.6025 54.3276 39.6025C53.4776 39.6025 52.7776 40.3025 52.7776 41.1525L52.7776 58.9025L26.4276 58.9025L26.4276 41.1525C26.4276 40.3025 25.7276 39.6025 24.8776 39.6025C24.0276 39.6025 23.3276 40.3025 23.3276 41.1525L23.3276 60.4525C23.3276 61.3025 24.0276 62.0025 24.8776 62.0025L54.3276 62.0025C55.1776 62.0025 55.8776 61.3025 55.8776 60.4525Z"></path><path id="路径 5" fill-rule="evenodd" style="fill:#5F5F5F" opacity="1" d="M44.1752,61.9949h-9.3c-0.85,0 -1.55,-0.6899 -1.55,-1.5499v-10.07c0,-0.85 0.7,-1.55 1.55,-1.55h9.3c0.85,0 1.55,0.7 1.55,1.55v10.07c0,0.86 -0.7,1.5499 -1.55,1.5499zM42.6252,58.895v-6.9701h-6.2v6.9701z"></path></g></g><defs><rect id="path_0" x="0" y="0" width="62" height="62" /></defs></svg>